<svg width="128" height="128" viewBox="0 0 128 128" fill="none" xmlns="http://www.w3.org/2000/svg">
<path d="M32.2947 35.2042C31.3381 34.652 30.115 34.9797 29.5627 35.9363C29.0104 36.8929 29.3381 38.1161 30.2947 38.6683L32.2947 35.2042ZM44.4891 44.6774L45.0073 46.6091C46.0739 46.3229 46.7068 45.2264 46.4209 44.1597L44.4891 44.6774ZM29.7779 46.5529C28.711 46.839 28.0781 47.9359 28.3643 49.0027C28.6505 50.0696 29.7473 50.7025 30.8142 50.4163L29.7779 46.5529ZM42.6187 29.9695C42.3328 28.9026 41.2361 28.2694 40.1692 28.5553C39.1023 28.8412 38.4691 29.9379 38.755 31.0048L42.6187 29.9695ZM30.1849 71.093C29.2284 71.6453 28.9006 72.8685 29.4529 73.8251C30.0052 74.7817 31.2284 75.1094 32.1849 74.5572L30.1849 71.093ZM44.4861 65.269L46.4181 65.7861C46.7036 64.7193 46.0704 63.6229 45.0037 63.3371L44.4861 65.269ZM38.7547 78.947C38.4691 80.014 39.1026 81.1105 40.1696 81.3961C41.2366 81.6817 42.3331 81.0482 42.6187 79.9812L38.7547 78.947ZM30.8135 59.5349C29.7466 59.249 28.6499 59.8821 28.364 60.9491C28.0782 62.016 28.7113 63.1127 29.7783 63.3986L30.8135 59.5349ZM60.2113 90.8653C60.2113 91.9698 61.1067 92.8653 62.2113 92.8653C63.3158 92.8653 64.2113 91.9698 64.2113 90.8653H60.2113ZM62.318 75.5681L63.7319 74.1535C62.9507 73.3728 61.6847 73.373 60.9038 74.1539L62.318 75.5681ZM71.2979 87.3706C72.0791 88.1515 73.3455 88.1511 74.1263 87.3698C74.9071 86.5886 74.9068 85.3222 74.1255 84.5414L71.2979 87.3706ZM50.5159 84.5418C49.7348 85.3229 49.7348 86.5892 50.5159 87.3702C51.2969 88.1513 52.5633 88.1513 53.3443 87.3702L50.5159 84.5418ZM64.4308 19.0863C64.4308 17.9817 63.5354 17.0863 62.4308 17.0863C61.3262 17.0863 60.4308 17.9817 60.4308 19.0863H64.4308ZM62.324 34.3835L60.9102 35.7981C61.6913 36.5788 62.9573 36.5786 63.7382 35.7977L62.324 34.3835ZM53.3442 22.5809C52.5629 21.8001 51.2966 21.8005 50.5158 22.5817C49.7349 23.363 49.7353 24.6293 50.5165 25.4102L53.3442 22.5809ZM74.1262 25.4098C74.9072 24.6287 74.9072 23.3624 74.1262 22.5813C73.3451 21.8003 72.0788 21.8003 71.2978 22.5813L74.1262 25.4098ZM92.882 85.1979L94.1638 83.6626L92.882 85.1979ZM75.6991 85.1975L74.4173 83.6622H74.4173L75.6991 85.1975ZM85.8797 59.8768C84.7751 59.8768 83.8797 60.7723 83.8797 61.8768C83.8797 62.9814 84.7751 63.8768 85.8797 63.8768V59.8768ZM85.8797 69.1717C84.7751 69.1717 83.8797 70.0671 83.8797 71.1717C83.8797 72.2763 84.7751 73.1717 85.8797 73.1717V69.1717ZM85.8797 79.1079C84.7751 79.1079 83.8797 80.0033 83.8797 81.1079C83.8797 82.2124 84.7751 83.1079 85.8797 83.1079V79.1079ZM45.45 42.7995L32.2947 35.2042L30.2947 38.6683L43.45 46.2636L45.45 42.7995ZM43.9709 42.7456L29.7779 46.5529L30.8142 50.4163L45.0073 46.6091L43.9709 42.7456ZM46.4209 44.1597L46.3819 44.0139L42.5182 45.0491L42.5572 45.195L46.4209 44.1597ZM46.3819 44.0139L42.6187 29.9695L38.755 31.0048L42.5182 45.0491L46.3819 44.0139ZM43.3402 63.4978L30.1849 71.093L32.1849 74.5572L45.3402 66.9619L43.3402 63.4978ZM42.5541 64.7519L38.7547 78.947L42.6187 79.9812L46.4181 65.7861L42.5541 64.7519ZM45.0037 63.3371L44.8579 63.298L43.8226 67.1617L43.9685 67.2008L45.0037 63.3371ZM44.8579 63.298L30.8135 59.5349L29.7783 63.3986L43.8226 67.1617L44.8579 63.298ZM60.2113 75.6748L60.2113 90.8653H64.2113L64.2113 75.6748H60.2113ZM60.9042 76.9827L71.2979 87.3706L74.1255 84.5414L63.7319 74.1535L60.9042 76.9827ZM60.9038 74.1539L60.7971 74.2606L63.6255 77.0891L63.7323 76.9823L60.9038 74.1539ZM60.7971 74.2606L50.5159 84.5418L53.3443 87.3702L63.6255 77.0891L60.7971 74.2606ZM64.4308 34.2767V19.0863H60.4308V34.2767H64.4308ZM63.7379 32.9689L53.3442 22.5809L50.5165 25.4102L60.9102 35.7981L63.7379 32.9689ZM63.7382 35.7977L63.845 35.6909L61.0166 32.8625L60.9098 32.9693L63.7382 35.7977ZM63.845 35.6909L74.1262 25.4098L71.2978 22.5813L61.0166 32.8625L63.845 35.6909ZM61.2113 56.7716L61.3205 56.8346L63.3204 53.3705L63.2113 53.3075L61.2113 56.7716ZM61.3205 56.8346L61.4308 56.8983L63.4308 53.4342L63.3204 53.3705L61.3205 56.8346ZM60.2113 54.786V54.912H64.2113V54.786H60.2113ZM60.2113 54.912V55.0395H64.2113V54.912H60.2113ZM63.2113 53.0539L45.45 42.7995L43.45 46.2636L61.2113 56.518L63.2113 53.0539ZM63.4308 53.1807L63.3204 53.117L61.3205 56.5811L61.4308 56.6448L63.4308 53.1807ZM63.3204 53.117L63.2113 53.0539L61.2113 56.518L61.3205 56.5811L63.3204 53.117ZM64.4308 55.1663V55.0388H60.4308V55.1663H64.4308ZM64.4308 55.0388V54.9127H60.4308V55.0388H64.4308ZM64.4308 54.9127V54.7853H60.4308V54.9127H64.4308ZM64.4308 54.7853L64.4308 34.2767H60.4308L60.4308 54.7853H64.4308ZM61.4308 53.0533L61.3204 53.117L63.3205 56.5811L63.4308 56.5173L61.4308 53.0533ZM61.3205 53.117L61.2113 53.18L63.2113 56.6441L63.3204 56.5811L61.3205 53.117ZM61.2113 53.18L43.3402 63.4978L45.3402 66.9619L63.2113 56.6441L61.2113 53.18ZM60.2113 55.0395V55.1656H64.2113V55.0395H60.2113ZM60.2113 55.1656L60.2113 75.6748H64.2113L64.2113 55.1656H60.2113ZM63.2112 56.8977L63.3204 56.8346L61.3205 53.3705L61.2113 53.4335L63.2112 56.8977ZM63.3205 56.8346L63.4308 56.7709L61.4308 53.3068L61.3204 53.3705L63.3205 56.8346ZM95.7043 95.4997C95.7043 101.803 90.5941 106.914 84.2903 106.914V110.914C92.8032 110.914 99.7043 104.013 99.7043 95.4997H95.7043ZM84.2903 106.914C77.9865 106.914 72.8763 101.803 72.8763 95.4997H68.8763C68.8763 104.013 75.7774 110.914 84.2903 110.914V106.914ZM91.6002 86.7331C94.1118 88.83 95.7043 91.978 95.7043 95.4997H99.7043C99.7043 90.7423 97.5466 86.487 94.1638 83.6626L91.6002 86.7331ZM72.8763 95.4997C72.8763 91.9778 74.469 88.8298 76.9808 86.7328L74.4173 83.6622C71.0342 86.4866 68.8763 90.7421 68.8763 95.4997H72.8763ZM76.9808 86.7328C77.2704 86.4911 77.5542 86.313 77.8652 86.1362C78.1115 85.9962 78.6067 85.7371 78.98 85.477C79.4284 85.1644 79.9222 84.7169 80.2693 84.0253C80.6051 83.3562 80.7181 82.6291 80.7181 81.8875H76.7181C76.7181 82.2362 76.663 82.2933 76.6943 82.231C76.7369 82.146 76.7898 82.1278 76.6927 82.1954C76.5205 82.3155 76.3655 82.3877 75.8888 82.6586C75.4768 82.8928 74.9647 83.2052 74.4173 83.6622L76.9808 86.7328ZM84.2907 23.8193C85.5751 23.8193 86.5086 24.1086 87.0643 24.5077C87.5313 24.8431 87.8632 25.3378 87.8632 26.2554H91.8632C91.8632 24.0955 90.9476 22.3721 89.3978 21.2589C87.9366 20.2094 86.0839 19.8193 84.2907 19.8193V23.8193ZM94.1638 83.6626C93.6164 83.2056 93.1044 82.8932 92.6924 82.659C92.2157 82.3881 92.0608 82.3159 91.8885 82.1958C91.7915 82.1282 91.8443 82.1465 91.887 82.2315C91.9183 82.2938 91.8632 82.2368 91.8632 81.888H87.8632C87.8632 82.6296 87.9762 83.3567 88.312 84.0257C88.6591 84.7174 89.1529 85.1648 89.6012 85.4774C89.9745 85.7375 90.4696 85.9966 90.7159 86.1366C91.0268 86.3133 91.3106 86.4914 91.6002 86.7331L94.1638 83.6626ZM84.2907 19.8193C82.4975 19.8193 80.6447 20.2094 79.1835 21.2589C77.6337 22.3721 76.7181 24.0955 76.7181 26.2554H80.7181C80.7181 25.3378 81.05 24.8431 81.517 24.5077C82.0727 24.1086 83.0062 23.8193 84.2907 23.8193V19.8193ZM80.7181 45.6353V26.2554H76.7181V45.6353H80.7181ZM63.4308 56.7709L79.7181 47.3674L77.7181 43.9033L61.4308 53.3068L63.4308 56.7709ZM80.7181 81.8875V64.5698H76.7181V81.8875H80.7181ZM80.7181 64.5698V45.6353H76.7181V64.5698H80.7181ZM61.4308 56.8983L77.7181 66.3018L79.7181 62.8377L63.4308 53.4342L61.4308 56.8983ZM89.8632 59.8768H85.8797V63.8768H89.8632V59.8768ZM87.8632 26.2554V61.8768H91.8632V26.2554H87.8632ZM87.8632 61.8768V71.1717H91.8632V61.8768H87.8632ZM89.8632 69.1717H85.8797V73.1717H89.8632V69.1717ZM87.8632 71.1717V81.1079H91.8632V71.1717H87.8632ZM87.8632 81.1079V81.888H91.8632V81.1079H87.8632ZM89.8632 79.1079H85.8797V83.1079H89.8632V79.1079Z" fill="black"/>
</svg>
