<svg width="128" height="128" viewBox="0 0 128 128" fill="none" xmlns="http://www.w3.org/2000/svg">
<path d="M87.3177 91.1475H43.4489M87.3177 82.7996H46.9338C43.4802 82.7996 40.6805 79.9999 40.6805 76.5463C40.6805 73.0927 43.4802 70.293 46.9338 70.293C49.3074 70.293 51.3722 71.6155 52.4314 73.5638M87.3177 99.4934H67.7782C64.3246 99.4934 61.5249 102.293 61.5249 105.747C61.5249 109.2 64.3246 112 67.7782 112C70.1518 112 72.2165 110.678 73.2757 108.729M39.0394 61.2435C30.7103 61.2435 23.9583 54.4914 23.9583 46.1623C23.9583 37.557 31.1356 31.0812 39.5316 31.0812C39.5316 22.7521 46.2836 16 54.6127 16C59.4766 16 63.8026 18.3025 66.5604 21.877C69.2252 19.5039 72.7374 18.062 76.5864 18.062C84.2928 18.062 90.6491 23.8422 91.5564 31.3037C98.6486 32.5341 104.042 38.7184 104.042 46.1623C104.042 54.4914 97.2897 61.2435 88.9606 61.2435H39.0394Z" stroke="black" stroke-width="4" stroke-linecap="round"/>
</svg>
